# xmcd
#
# Track frame offsets:
#	150
#	10048
#	20046
#	29089
#	39059
#	50753
#	59311
#	71541
#	77390
#	88120
#	99409
#	108889
#	117074
#	125949
#	134163
#	145030
#	151775
#	162609
#	171650
#	180044
#	191229
#	201917
#	211142
#	221158
#	231523
#	242614
#	251902
#	263712
#	276180
#	285297
#	297060
#	304717
#	315344
#
# Disc length: 4362 seconds
#
# Revision: 1
# Processed by: cddbd v1.4PL0 Copyright (c) Steve Scherf et al.
# Submitted via: audiograbber 1.82.00
#
DISCID=e1110821
DTITLE=Johnny Cash - The Man, The World, His Music
DYEAR=1900
DGENRE=Country
TTITLE0=Born To Loose
TTITLE1=Story Of A Broken Heart
TTITLE2=Two-Timin' Woman
TTITLE3=Goodbye Little Darling
TTITLE4=Port Of Lonely Hearts
TTITLE5=I Forgot To Remmber To Forget Her
TTITLE6=Good Night Irene
TTITLE7=My Treasure
TTITLE8=I Heard That Lonesome Whistle
TTITLE9=Mean Eyed Cat
TTITLE10=New Mexico
TTITLE11=Sugartime
TTITLE12=Life Goes On
TTITLE13=Wreck Of The Old 97
TTITLE14=Belshazah
TTITLE15=You're My Baby
TTITLE16=Fools Hall Of Fame
TTITLE17=Blue Train
TTITLE18=Country Boy
TTITLE19=Wide Open Road
TTITLE20=I Just Thought You'd Like To Know
TTITLE21=Down The Street To 301
TTITLE22=Get Rhythm
TTITLE23=You Win Again
TTITLE24=Oh Lonesome Me
TTITLE25=Luther's Boogie
TTITLE26=Doin' My Time
TTITLE27=Give My Love To Rose
TTITLE28=Blue Train
TTITLE29=So Doggone Lonesome
TTITLE30=Hey Good Locking
TTITLE31=Train Of Love
TTITLE32=Thanks A Lot
EXTD=
EXTT0=
EXTT1=
EXTT2=
EXTT3=
EXTT4=
EXTT5=
EXTT6=
EXTT7=
EXTT8=
EXTT9=
EXTT10=
EXTT11=
EXTT12=
EXTT13=
EXTT14=
EXTT15=
EXTT16=
EXTT17=
EXTT18=
EXTT19=
EXTT20=
EXTT21=
EXTT22=
EXTT23=
EXTT24=
EXTT25=
EXTT26=
EXTT27=
EXTT28=
EXTT29=
EXTT30=
EXTT31=
EXTT32=
PLAYORDER=
